<?xml version="1.0" encoding="utf-8"?>
<svg viewBox="9.178 -7.275 212.35 212.309" xmlns="http://www.w3.org/2000/svg">
  <path d="M 176.529 66.987 C 179.549 62.11 197.836 50.723 204.332 52.889 C 208.755 54.364 211.576 62.916 213.34 66.443 C 215.23 70.221 218.884 76.689 217.094 81.274 C 215.008 86.619 215.007 93.166 211.769 98.022 C 204.783 108.498 179.906 137.561 169.274 115.016 C 165.584 107.191 170.375 103.064 173.573 96.666 C 177.368 89.075 175.389 76.353 175.389 67.804" style="fill: rgb(197, 172, 169);"/>
  <path d="M 47.97 59.3 C 43.205 56.399 33.356 50.805 27.137 49.191 C 19.53 47.216 13.095 59.642 13.095 63.675 C 13.095 71.343 15.614 78.432 15.614 85.984 C 15.614 87.822 14.358 93.016 15.811 94.713 C 19.636 99.179 23.624 105.006 26.778 109.92 C 32.666 119.093 51.46 114.907 55.066 106.48 C 57.804 100.082 55.747 88.98 52.471 83.162 C 48.265 75.691 52.436 65.821 47.606 58.296" style="fill: rgb(197, 172, 169);"/>
  <path d="M 47.534 66.622 C 49.391 71.083 46.406 86.112 50.592 94.285 C 54.182 101.295 48.515 110.797 53.245 117.431 C 57.481 123.372 54.263 131.561 56.47 136.287 C 61.36 146.762 63.805 165.704 80.425 175.198 C 83.96 177.217 88.724 180.33 92.466 182.113 C 97.123 184.332 104.854 184.169 109.733 185.451 C 111.884 186.016 122.94 185.978 127.509 184.292 C 142.75 178.668 157.334 161.196 161.993 146.162 C 165.406 135.147 165.889 123.848 173.429 109.523 C 176.108 104.434 172.686 96.755 175.628 91.721 C 180.644 83.136 173.825 74.508 178.077 70.065 C 181.792 66.184 172.105 42.32 168.242 36.509 C 165.712 32.704 153.132 19.625 144.539 16.554 C 123.831 9.152 106.709 8.147 84.314 15.212 C 80.415 16.442 73.323 17.324 67.999 22.078 C 61.291 28.068 56.194 35.228 50.577 42.428 C 46.584 47.546 43.759 56.508 47.534 66.622 Z" style="fill: rgb(34, 57, 71);"/>
  <path d="M 106.734 76.295 C 103.253 74.307 99.488 72.468 95.886 70.77 C 82.403 64.412 69.444 70.876 65.744 83.107 C 63.665 89.981 63.859 94.373 64.028 101.027 C 64.244 109.527 69.078 120.522 70.702 126.713 C 74.757 142.174 78.047 154.705 82.933 169.348 C 86.248 179.285 91.617 175.897 103.718 178.923 C 120.951 183.231 126.438 186.879 134.525 174.745 C 146.129 157.336 153.102 129.181 156.469 104.943 C 158.129 92.995 153.306 79.431 151.945 78.523 C 148.01 75.901 145.496 71.677 139.221 69.669 C 126.169 65.493 107.267 75.616 106.734 76.295 Z" style="fill: rgb(166, 149, 142);"/>
  <path d="M 95.893 101.536 C 94.283 101.606 93.164 101.419 91.587 101.106 C 87.941 100.384 83.795 100.162 80.696 98.095 C 79.418 97.243 78.006 94.511 78.922 92.883 C 81.879 87.624 91.733 90.602 94.577 94.701 C 96.568 97.57 96.434 101.257 95.926 101.248 L 95.893 101.536 Z" style="fill: rgb(6, 6, 6);"/>
  <path d="M 121.564 101.443 C 119.766 94.099 123.474 91.2 130.656 92.487 C 132.526 92.822 136.248 93.46 137.253 95.471 C 140.166 101.297 130.519 103.274 126.928 103.274 C 125.599 103.274 123.341 103.829 122.316 102.805 Z" style="fill: rgb(6, 6, 6);"/>
  <path d="M 84.177 90.569 C 79.225 91.375 80.16 100.884 86.428 98.794 C 90.823 97.33 89.756 91.179 85.71 90.675 C 85.202 90.613 84.605 90.499 84.177 90.569 Z" style="fill: rgb(197, 172, 169);"/>
  <path d="M 127.953 92.794 C 124.21 92.994 120.942 95.066 123.76 98.826 C 124.468 99.769 126.816 103.089 128.226 102.619 C 134.044 100.682 134.714 92.897 126.962 92.897 Z" style="fill: rgb(197, 172, 169);"/>
  <path d="M 87.985 68.339 C 85.777 68.294 78.894 67.333 75.009 71.078 C 73.998 72.053 69.898 74.07 69.048 77.032 C 68.44 79.152 75.75 75.87 77.268 74.913 C 81.668 72.139 94.161 73.008 98.71 75.409 C 102.658 77.493 103.943 73.99 102.424 73.213 C 100.969 72.469 97.138 70.506 95.057 69.715 C 93.014 68.938 90.233 68.385 87.985 68.339 Z" style="fill: rgb(216, 216, 216);"/>
  <path d="M 115.877 71.103 C 114.24 72.375 109.436 73.445 112.347 75.185 C 115.33 76.969 116.607 76.316 120.718 75.646 C 125.632 74.845 129.281 74.873 134.26 74.873 C 136.071 74.873 143.427 77.614 145.013 76.888 C 150.595 74.332 145.589 72.738 143.937 71.556 C 141.61 69.89 133.893 67.204 130.588 67.373 C 129.981 66.49 118.071 69.398 115.877 71.103 Z" style="fill: rgb(216, 216, 216);"/>
  <path d="M 73.878 138.633 C 73.878 138.633 76.76 133.439 78.75 130.615 C 79.99 128.855 80.619 126.936 81.653 125.075 C 82.183 124.12 83.076 123.251 83.497 122.261 C 84.026 121.014 85.026 119.97 85.82 118.858 C 87.289 116.801 88.719 114.726 90.195 112.667 C 92.513 109.432 94.136 105.462 97.169 102.85 C 98.04 102.1 99.447 101.577 100.537 101.323 C 101.218 101.164 101.965 100.861 102.651 100.632 C 103.709 100.28 105.026 100.369 106.13 100.221 C 108.795 99.864 111.681 99.782 114.255 100.639 C 114.755 100.806 115.197 101.369 115.689 101.602 C 118.097 102.737 119.832 104.403 121.568 106.388 C 122.867 107.873 124.802 108.739 126.194 110.115 C 127.444 111.351 128.338 113.015 129.693 114.14 C 131.588 115.713 133.624 117.085 135.454 118.737 C 137.115 120.238 138.206 122.126 139.627 123.824 C 141.14 125.631 142.743 127.363 144.188 129.226 C 146.791 132.579 148.436 135.746 149.297 139.684 C 149.414 140.216 148.834 141.611 148.633 142.051 C 148.082 143.258 147.616 144.487 147.335 145.775 C 146.623 149.044 146.73 152.104 144.175 154.659 C 140.589 158.245 135.413 159.987 130.649 161.372 C 129.041 161.839 127.54 162.666 125.94 163.178 C 123.423 163.984 120.881 164.322 118.285 164.737 C 115.036 165.256 111.196 165.38 107.899 165.038 C 106.55 164.898 105.388 164.201 104.092 163.94 C 100.409 163.199 96.696 162.535 92.981 161.691 C 90.535 161.135 87.753 160.456 85.643 159.001 C 84.77 158.399 83.948 157.669 83.066 157.1 C 82.539 156.76 81.932 156.465 81.507 155.98 C 80.275 154.571 79.146 153.031 78.087 151.485 C 77.081 150.014 76.637 148.241 75.856 146.679 C 75.07 145.106 74.77 143.516 74.401 141.835 C 74.22 141.01 73.993 138.748 73.878 138.633 Z" style="fill: rgb(154, 138, 132);"/>
  <path d="M 107.559 102.626 C 97.742 106.107 98.776 134.329 88.778 137.038 C 78.2 139.905 71.892 144.596 75.668 158.888 C 81.202 179.836 105.891 194.119 125.825 184.72 C 129.319 183.072 135.358 179.057 138.147 175.1 C 140.947 171.128 143.791 166.238 144.92 162.191 C 147.955 151.306 147.344 147.114 141.543 138.415 C 138.618 134.029 125.834 112.682 121.326 109.676 C 117.997 107.457 113.808 106.914 110.701 103.81 L 107.559 102.626 Z" style="fill: rgb(141, 119, 109);"/>
  <path d="M 108.479 102.466 C 103.631 101.66 98.437 104.622 96.925 106.921 C 95.321 109.359 91.539 114.414 89.911 116.978 C 81.157 130.769 69.13 148.83 78.14 153.769 C 79.501 154.515 81.807 157.029 86.469 158.377 C 90.432 159.523 96.055 161.091 100.186 161.482 C 105.014 161.939 114.183 163.314 119.303 162.034 C 128.833 159.651 141.812 155.832 145.002 146.27 C 146.241 142.553 141.627 137.408 140.263 134.473 C 134.389 121.835 123.311 104.931 108.479 102.466 Z" style="fill: rgb(197, 172, 169);"/>
  <g transform="matrix(1.371622, 0, 0, 1.695659, -94.077133, -719.023865)" style="">
    <path d="M 149.623 495.75 C 149.594 495.183 149.71 493.915 150.268 493.536 C 150.635 493.288 151.054 493.233 151.383 492.904 C 152.134 492.153 152.02 490.764 152.33 489.835 C 152.389 489.659 152.411 489.16 152.609 489.061 C 154.603 488.064 153.89 491.278 153.89 492.38 C 153.89 492.829 154.165 493.365 154.061 493.838 C 153.744 495.284 151.318 495.895 150.151 495.895 L 149.623 495.75 Z" style="fill: rgb(49, 47, 47);"/>
    <path d="M 140.98 490.121 C 141.229 491.076 142.683 492.5 143.527 493.121 C 143.879 493.381 144.487 494.071 144.538 494.483 C 144.593 494.927 145.092 495.84 144.434 496.169 C 144.145 496.314 143.573 496.199 143.241 496.199 C 140.707 496.199 139.72 493.938 139.72 491.67 C 139.72 491.259 140.097 489.265 140.895 490.064 L 140.98 490.121 Z" style="fill: rgb(49, 47, 47);"/>
  </g>
  <path d="M 181.506 72.761 C 181.319 77.077 181.688 81.215 181.688 85.547 C 181.688 89.723 180.303 94.507 178.985 98.344 C 178.659 99.293 178.002 101.465 178.499 102.46 C 179.017 103.496 180.472 101.983 181.17 101.711 C 183.498 100.801 186.309 99.675 187.739 97.328 C 191.035 91.924 194.66 88.09 196.929 82.277 C 197.379 81.123 197.069 79.299 196.782 78.15 C 194.922 70.719 188.221 69.02 181.706 72.278" style="fill: rgb(112, 100, 99);"/>
  <path d="M 200.677 60.555 C 196.566 61.111 196.414 64.231 197.812 67.605 C 200.025 72.942 208.754 75.208 206.063 83.039 C 204.128 88.674 195.544 91.958 192.153 96.656 C 189.976 99.672 188.241 110.151 195.591 107.627 C 204.026 104.731 207.276 93.417 209.184 85.791 C 210.113 82.078 213.587 78.523 212.054 74.046 C 211.041 71.085 209.081 66.192 206.33 64.358 C 204.752 63.305 203.229 62.859 201.87 61.501" style="fill: rgb(112, 100, 99);"/>
  <path d="M 42.685 65.356 C 42.452 71.209 43.84 78.228 44.818 84.058 C 45.152 86.043 46.382 90.736 45.427 92.646 C 43.465 96.571 36.184 94.491 34.196 91.511 C 30.909 86.581 30.392 81.817 29.869 75.982 C 29.594 72.908 28.647 69.717 30.397 66.845 C 31.164 65.586 31.305 63.033 32.881 62.245 C 35.128 61.12 39.093 65.998 41.5 65.998" style="fill: rgb(112, 100, 99);"/>
  <path d="M 25.28 56.601 C 19.085 56.955 18.461 63.243 18.461 68.144 C 18.461 76.617 20.778 85.129 21.747 93.441 C 21.931 95.027 23.848 96.536 24.345 98.025 C 24.734 99.193 28.509 98.806 29.011 97.803 C 30.582 94.66 31.599 93.559 30.019 89.95 C 27.72 84.697 26.282 80.047 26.282 74.002 C 26.282 68.281 30.159 60.497 26.024 56.361" style="fill: rgb(112, 100, 99);"/>
</svg>